<svg width="512" height="165" xmlns="http://www.w3.org/2000/svg"><path d="M0 164.183V52.288c0-15.06 4.706-27.434 14.118-37.125C24.018 5.054 36.915 0 52.81 0c15.617 0 28.515 5.054 38.693 15.163 9.412 9.342 14.118 21.717 14.118 37.125V154.77l-19.87 9.412h-1.045V86.797H20.915v67.974l-19.87 9.412H0zm20.915-88.889h63.79V44.967c0-9.342-2.509-16.906-7.529-22.692-6.274-7.181-14.396-10.772-24.366-10.772-10.039 0-18.16 3.59-24.366 10.772-5.02 5.856-7.529 13.42-7.529 22.692v30.327zm128 88.889V84.706c0-11.503 4.322-21.508 12.967-30.013 8.088-7.878 18.231-11.817 30.432-11.817h14.117v1.046l-5.02 10.457h-9.097c-6.275 0-11.59 1.865-15.948 5.595-4.357 3.73-6.536 9.603-6.536 17.62v77.177l-19.87 9.412h-1.045zm88.784-142.327c-2.44-2.51-3.66-5.525-3.66-9.046 0-3.52 1.22-6.535 3.66-9.045C240.14 1.255 243.102 0 246.59 0c3.485 0 6.448 1.255 8.888 3.765 2.44 2.51 3.66 5.525 3.66 9.045 0 3.521-1.22 6.536-3.66 9.046-2.44 2.51-5.403 3.765-8.889 3.765-3.486 0-6.449-1.255-8.889-3.765zm-1.568 142.327V50.196L256 40.784h1.046v113.987l-19.87 9.412h-1.045zm64.209-43.922V84.706c0-11.503 4.322-21.508 12.967-30.013 8.087-7.878 18.231-11.817 30.432-11.817 12.06 0 22.204 3.939 30.43 11.817 8.646 8.366 12.968 18.37 12.968 30.013v35.555c0 11.504-4.322 21.508-12.967 30.014-8.087 7.878-18.23 11.817-30.431 11.817-12.061 0-22.205-3.94-30.432-11.817-8.645-8.367-12.967-18.37-12.967-30.014zm20.915 7.112c0 8.017 2.179 13.89 6.536 17.62 4.357 3.73 9.673 5.595 15.948 5.595 6.274 0 11.59-1.865 15.947-5.595 4.358-3.73 6.536-9.603 6.536-17.62V77.595c0-8.018-2.178-13.891-6.536-17.621-4.357-3.73-9.673-5.595-15.947-5.595-6.275 0-11.59 1.865-15.948 5.595-4.357 3.73-6.536 9.603-6.536 17.62v49.779zm103.948 36.81V84.706c0-11.503 4.322-21.508 12.967-30.013 8.087-7.878 18.23-11.817 30.431-11.817 12.061 0 22.205 3.939 30.432 11.817C507.678 63.059 512 73.063 512 84.706v70.065l-19.87 9.412h-1.045V77.595c0-8.018-2.179-13.891-6.536-17.621-4.357-3.73-9.673-5.595-15.948-5.595-6.274 0-11.59 1.865-15.947 5.595-4.358 3.73-6.536 9.603-6.536 17.62v77.177l-19.87 9.412h-1.045z" fill="#6862A3" fill-rule="evenodd"/></svg>